<svg width="32" height="32" viewBox="0 0 32 32" fill="none" xmlns="http://www.w3.org/2000/svg">
<path fill-rule="evenodd" clip-rule="evenodd" d="M16 32C24.8366 32 32 24.8365 32 16C32 7.16345 24.8366 0 16 0C7.16343 0 0 7.16345 0 16C0 24.8365 7.16343 32 16 32ZM20.9915 7.45347C21.2344 6.59044 20.3969 6.0801 19.632 6.62504L8.95449 14.2317C8.12497 14.8226 8.25545 16 9.15049 16H11.9622V15.9782H17.442L12.977 17.5537L11.0086 24.5465C10.7656 25.4096 11.6031 25.9199 12.368 25.3749L23.0455 17.7684C23.875 17.1774 23.7445 16 22.8495 16H18.5857L20.9915 7.45347Z" fill="#94A3B8"/>
</svg>
